<?xml version="1.0" standalone="no"?>
<!DOCTYPE svg PUBLIC "-//W3C//DTD SVG 20010904//EN"
 "http://www.w3.org/TR/2001/REC-SVG-20010904/DTD/svg10.dtd">
<svg version="1.0" xmlns="http://www.w3.org/2000/svg"
 width="300.000000pt" height="262.000000pt" viewBox="0 0 300.000000 262.000000"
 preserveAspectRatio="xMidYMid meet">
<metadata>
Created by potrace 1.10, written by Peter Selinger 2001-2011
</metadata>
<g transform="translate(0.000000,262.000000) scale(0.050000,-0.050000)"
fill="#000000" stroke="none">
<path d="M5396 5113 c6 -22 15 -28 23 -15 7 12 37 24 67 26 82 7 64 28 -23 27
-64 -1 -75 -7 -67 -38z"/>
<path d="M3120 4829 c-16 -3 -97 -16 -180 -30 -180 -29 -619 -164 -730 -226
-86 -47 -119 -113 -55 -113 26 0 47 -28 72 -98 71 -195 66 -195 454 -34 737
306 1648 120 2215 -453 l165 -167 -307 -609 c-169 -335 -346 -696 -394 -801
l-87 -193 -149 -12 c-83 -7 -198 -13 -257 -13 l-106 0 47 105 c26 58 103 227
171 375 448 978 513 1211 351 1252 -141 35 -581 -210 -985 -550 -80 -67 -145
-119 -145 -114 0 4 26 70 58 145 200 475 -30 501 -618 70 -200 -147 -395 -336
-685 -668 -132 -151 -242 -275 -245 -275 -3 0 31 112 75 249 130 400 53 432
-205 85 -102 -137 -122 -136 -52 3 133 262 185 535 122 643 -15 28 -34 61 -41
74 -7 14 27 67 80 123 50 53 121 134 156 180 35 46 76 83 91 83 16 0 24 12 18
27 -14 37 77 225 116 240 16 7 30 22 30 34 0 12 -10 15 -22 8 -12 -8 -6 10 13
40 40 61 15 96 -61 86 -41 -5 -42 -17 -18 -123 12 -51 9 -57 -22 -45 -59 23
-110 -41 -110 -136 0 -46 -8 -92 -18 -102 -10 -10 -21 -34 -25 -52 -6 -29
-241 -321 -250 -310 -8 9 124 384 138 390 8 3 15 26 15 50 0 24 12 62 28 84
57 82 111 189 94 189 -23 0 -72 -60 -49 -60 9 0 7 -7 -5 -15 -12 -8 -37 -42
-54 -75 l-32 -60 -1 53 c-1 28 13 63 29 77 39 32 39 68 0 53 -25 -10 -27 -5
-10 28 18 34 14 42 -33 60 -73 28 -100 -15 -46 -72 49 -52 51 -92 4 -74 -33
12 -33 11 0 -40 43 -66 45 -115 5 -115 -34 0 -39 -23 -10 -52 20 -20 -33 -238
-90 -376 -39 -93 -159 -85 -127 9 11 31 32 67 46 79 15 12 23 38 18 57 -6 20
4 48 22 62 39 33 40 81 2 81 -18 0 -41 -44 -63 -120 -18 -66 -41 -120 -51
-120 -9 0 -17 -17 -17 -37 0 -50 -20 -65 -50 -37 -20 19 -20 32 2 63 36 51 36
91 0 91 -33 0 -52 -43 -52 -118 0 -50 -9 -56 -123 -79 -516 -107 -1179 -619
-1153 -890 8 -81 39 -67 73 34 100 295 563 649 1040 793 116 36 245 40 147 5
-20 -7 -20 -15 -2 -37 44 -53 8 -245 -80 -428 -116 -242 -164 -442 -179 -751
-10 -199 -21 -274 -48 -314 -45 -69 -45 -115 2 -115 24 0 71 52 133 145 147
223 616 876 623 869 4 -4 -30 -114 -74 -245 -136 -405 -79 -440 189 -119 507
611 1269 1241 1374 1136 66 -66 -156 -559 -344 -762 -210 -227 -281 -353 -275
-484 6 -109 2 -118 -169 -394 -165 -268 -205 -359 -149 -341 14 4 109 138 211
296 135 211 195 287 220 283 160 -30 556 34 594 97 16 25 -17 23 -160 -11
-181 -44 -410 -38 -410 11 0 9 43 91 96 182 52 92 127 229 165 304 105 208
429 500 869 784 534 344 555 264 161 -631 -85 -192 -193 -417 -240 -500 -47
-82 -109 -196 -137 -253 l-52 -102 -166 -24 c-216 -31 -316 -57 -316 -84 0
-15 29 -18 85 -9 47 7 146 18 220 25 l134 13 -130 -286 c-159 -348 -175 -406
-107 -397 40 6 78 66 228 357 l180 350 247 16 c136 9 251 13 255 9 4 -4 -70
-180 -165 -391 -159 -355 -188 -459 -123 -433 14 5 70 111 124 234 55 124 137
308 185 411 l85 185 591 -2 c444 -1 591 -7 591 -25 0 -15 8 -12 20 6 39 60 21
-41 -39 -221 -443 -1321 -1797 -1817 -3243 -1189 -221 96 -267 99 -162 11 182
-153 851 -353 1310 -393 85 -8 160 -22 166 -31 6 -10 20 -12 32 -5 13 8 11 19
-7 30 -19 12 -12 17 24 18 28 0 63 11 78 25 22 20 24 20 11 -3 -61 -107 735
81 946 224 125 84 90 88 -59 6 -153 -84 -449 -185 -587 -200 -99 -11 -99 -11
-20 9 253 63 469 154 617 262 45 32 98 55 116 50 23 -6 62 25 117 89 86 103
145 134 88 48 -85 -129 161 53 302 225 553 670 687 1815 292 2489 -291 497
-925 1018 -1369 1124 -32 8 -53 19 -48 24 40 40 463 -143 665 -287 269 -192
663 -622 809 -883 10 -17 24 -26 31 -19 13 14 -88 227 -156 327 -32 47 -20 41
55 -30 87 -82 93 -84 65 -30 -34 66 -150 181 -419 417 -96 84 -172 156 -170
160 10 12 -236 218 -320 267 -123 72 -146 47 -27 -31 164 -106 136 -107 -70
-2 -106 54 -256 118 -332 143 -77 25 -130 48 -119 52 11 3 103 -21 204 -55
219 -74 256 -70 62 6 -385 151 -982 238 -1263 182z m736 -63 c74 -19 121 -37
104 -40 -16 -3 -93 12 -170 32 -77 21 -124 39 -104 40 20 1 96 -13 170 -32z
m-286 -60 c133 -22 16 -42 -270 -44 -137 -2 -289 -12 -338 -23 -102 -24 -133
-10 -50 22 138 53 474 76 658 45z m-1600 -626 c6 -10 -1 -43 -16 -72 l-28 -54
-10 53 c-6 29 -2 53 8 53 10 0 13 9 6 20 -7 11 -3 20 8 20 11 0 25 -9 32 -20z
m3263 -615 c275 -415 370 -701 365 -1102 l-3 -193 -26 260 c-31 320 -65 482
-94 453 -15 -15 -10 -75 14 -197 40 -198 62 -545 37 -577 -21 -28 -1146 -13
-1146 15 0 28 725 1496 739 1496 6 0 58 -70 114 -155z m-3765 3 c46 -18 42
-28 -58 -157 -104 -133 -130 -87 -48 83 43 88 52 95 106 74z m110 -120 c27
-96 1 -226 -90 -455 -73 -183 -248 -540 -259 -529 -3 4 15 179 40 389 l46 383
106 142 c122 164 130 167 157 70z m-319 -428 c-9 -71 -27 -238 -40 -370 -20
-215 -31 -254 -96 -377 l-73 -137 -7 97 c-14 204 62 565 172 812 62 141 64
139 44 -25z m1503 -423 c-45 -81 -82 -133 -82 -117 0 35 143 284 155 271 5 -4
-28 -74 -73 -154z m2756 -940 c-37 -134 -70 -217 -87 -217 -6 0 72 265 98 335
30 78 23 4 -11 -118z"/>
<path d="M1637 1025 c30 -54 121 -133 137 -118 7 7 -17 45 -54 83 -73 75 -113
92 -83 35z"/>
<path d="M1820 862 c0 -22 159 -162 184 -162 37 0 11 40 -72 108 -92 75 -112
84 -112 54z"/>
</g>
</svg>
